<svg xmlns="http://www.w3.org/2000/svg" xml:space="preserve" style="enable-background:new 0 0 841.9 595.3" viewBox="197.08 71 450.02 450.73"><path d="M486.7 214.7c26.8-.2 53.7-2.3 80.2 0 21.2 1.8 39.5 24.9 40.3 46.6.9 24.6-6.1 43.9-28.2 56.7 13.3 21.9 26.1 43.2 40 66.2-15.3 0-29.2.4-43-.3-3.2-.2-7-4-8.9-7.2-8.7-14-16.6-28.6-25.5-42.5-2.5-3.8-7.6-6-11.5-8.9-1 .9-2 1.7-3 2.6V384h-42.8c0-51.1-.1-102.3.1-153.4.1-5.4 1.5-10.7 2.3-15.9zm40.2 73.6c3.9 1 7.1 2.6 10.2 2.4 9.5-.5 21.2.1 24.4-10.6 2.5-8.2 1.5-18.6-1.2-26.9-2.4-7.4-19.9-11.6-27.9-8.4-2.4 1-5.1 4.6-5.2 7.1-.6 12-.3 24-.3 36.4zM197.1 521.7c7.4-15.6 14.5-31.3 22.1-46.8 8.2-16.8 17.4-33 24.9-50.1 4.7-10.8 11.1-15.4 22.7-13.6 3.2.5 6.6.1 12.1.1-14.4 29.4-28.2 57.5-42.7 87h372.3c-14.4-29.1-28.1-56.9-42-85 22.8-5.2 25.7-4 34.8 14.6 15.3 31.2 30.5 62.4 45.8 93.6-150 0-300 .1-450 .2zm84.8-175.8h61.8v37.5H225.5c-1.4-12.1-2.9-23.7 4.2-35.5 17.7-29.4 34.6-59.4 51.8-89.1 1-1.7 1.8-3.4 3.5-6.6h-59.4V215h115.9c-.4 11.2 2.9 22.2-4 33.9-18.9 31.2-36.3 63-55.6 97zm74.9-2c11.1 1.6 20.3 3.8 29.7 4.2 9.4.4 19.2.7 28.1-1.9 11.7-3.3 12.8-13.7 2.4-20-7.2-4.4-15.9-6.6-24-9.5-27.1-9.5-40.9-26.2-41.1-49.8-.2-28.6 12.1-47 40.1-53.1 21.7-4.7 44.2-3.9 66.5.6v34.9c-16.4 0-32-.8-47.4.5-4.8.4-10.5 5.9-13 10.6-1.1 2 4.1 9.4 7.9 11.6 7.8 4.3 16.8 6.4 25.1 9.9 18 7.6 33.2 17.3 37.1 39.2 5.5 30.7-13.9 58.5-44.6 63.5-20 3.2-39.3 2.7-58.8-2.3-6.3-1.6-8.1-4.5-8-10.3.2-8.8 0-17.5 0-28.1zm9.5-161.1c18.4-36.7 36.5-73 55.9-111.8 19.2 38.3 37.4 74.5 55.8 111.2-23.6 5.5-26.2 4.3-35.6-14.3-6.1-12.2-12.2-24.4-18.4-36.5-.3-.6-1.2-.9-3-2.1-6.4 12.5-12.7 24.9-19 37.3-10.2 20.4-10.2 20.4-35.7 16.2z" style="fill:#FFD727"/></svg>